<svg width="1600" height="1200" viewBox="0 0 1600 1200" fill="none" xmlns="http://www.w3.org/2000/svg">
  <defs>
    <linearGradient id="bg" x1="0" y1="0" x2="1600" y2="1200" gradientUnits="userSpaceOnUse">
      <stop stop-color="#E9F4FF"/>
      <stop offset="0.55" stop-color="#F7FBFF"/>
      <stop offset="1" stop-color="#E4F2FF"/>
    </linearGradient>
    <radialGradient id="glow" cx="0" cy="0" r="1" gradientUnits="userSpaceOnUse" gradientTransform="translate(240 880) rotate(-18) scale(650 520)">
      <stop stop-color="#67B3FF" stop-opacity="0.45"/>
      <stop offset="1" stop-color="#67B3FF" stop-opacity="0"/>
    </radialGradient>
  </defs>

  <rect width="1600" height="1200" fill="url(#bg)"/>
  <rect width="1600" height="1200" fill="url(#glow)"/>

  <g stroke="#CFE1F5" stroke-opacity="0.45" stroke-width="1">
    <path d="M0 140L1600 1010"/><path d="0 340L1600 240"/><path d="40 1120L1560 70"/>
    <path d="280 0L920 1200"/><path d="560 0L1240 1200"/><path d="1200 0L1380 1200"/>
  </g>

  <g stroke="#4B9BE8" stroke-opacity="0.65" stroke-width="4" fill="none" stroke-linecap="round" stroke-linejoin="round">
    <path d="M40 1180V820L120 740V560L180 500V300"/>
    <path d="M90 1180V910L165 835V610L240 535V370"/>
    <path d="M150 1180V960L220 890V690L310 600V430"/>
    <path d="M230 1180V980L300 910V760L390 680V500"/>
    <path d="M300 1180V1020L370 960V820L450 750V560"/>
    <path d="M380 1180V1040L450 990V870L525 800V640"/>
    <path d="M460 1180V1080L530 1030V910L600 840V700"/>
    <path d="M540 1180V1110L610 1070V980L680 920V800"/>
    <path d="M620 1180V1135L690 1100V1020L755 970V860"/>
    <path d="M700 1180V1150L760 1125V1060L820 1020V930"/>
  </g>

  <g fill="#84BBF0" fill-opacity="0.9">
    <circle cx="180" cy="500" r="8"/><circle cx="240" cy="535" r="8"/><circle cx="310" cy="600" r="8"/>
    <circle cx="390" cy="680" r="8"/><circle cx="450" cy="750" r="8"/><circle cx="525" cy="800" r="8"/>
    <circle cx="600" cy="840" r="8"/><circle cx="680" cy="920" r="8"/><circle cx="755" cy="970" r="8"/>
    <circle cx="820" cy="1020" r="8"/>
  </g>
</svg>
